<svg xmlns="http://www.w3.org/2000/svg" viewBox="0 0 120 120" width="120" height="120">
  <!-- Shield Icon -->
  <path d="M60,20 L60,20 L60,20 C60,20 40,15 20,20 C0,25 -5,60 20,85 C45,110 60,100 60,100 C60,100 75,110 100,85 C125,60 120,25 100,20 C80,15 60,20 60,20 Z" fill="#0d6efd" stroke="#0d6efd" stroke-width="2"/>
  <path d="M60,35 L60,35 L60,35 C60,35 45,32 30,35 C15,38 12,60 30,75 C48,90 60,85 60,85 C60,85 72,90 90,75 C108,60 105,38 90,35 C75,32 60,35 60,35 Z" fill="white" stroke="white" stroke-width="1"/>
  <path d="M60,50 L60,50 L60,50 C60,50 50,48 40,50 C30,52 28,65 40,73 C52,81 60,78 60,78 C60,78 68,81 80,73 C92,65 90,52 80,50 C70,48 60,50 60,50 Z" fill="#0d6efd" stroke="#0d6efd" stroke-width="1"/>
  <path d="M55,65 L65,65 M60,60 L60,70" stroke="white" stroke-width="3" stroke-linecap="round"/>
</svg>
